<svg preserveAspectRatio="none" width="100%" height="100%" overflow="visible" style="display: block;" viewBox="0 0 20 20" fill="none" xmlns="http://www.w3.org/2000/svg">
<g id="Frame">
<path id="Vector" d="M4 11.4C4.7732 11.4 5.4 10.7732 5.4 10C5.4 9.2268 4.7732 8.6 4 8.6C3.2268 8.6 2.6 9.2268 2.6 10C2.6 10.7732 3.2268 11.4 4 11.4Z" fill="#64748B"/>
<path id="Vector_2" d="M10 11.4C10.7732 11.4 11.4 10.7732 11.4 10C11.4 9.2268 10.7732 8.6 10 8.6C9.2268 8.6 8.6 9.2268 8.6 10C8.6 10.7732 9.2268 11.4 10 11.4Z" fill="#64748B"/>
<path id="Vector_3" d="M16 11.4C16.7732 11.4 17.4 10.7732 17.4 10C17.4 9.2268 16.7732 8.6 16 8.6C15.2268 8.6 14.6 9.2268 14.6 10C14.6 10.7732 15.2268 11.4 16 11.4Z" fill="#64748B"/>
</g>
</svg>
