<svg preserveAspectRatio="none" width="100%" height="100%" overflow="visible" style="display: block;" viewBox="0 0 20 20" fill="none" xmlns="http://www.w3.org/2000/svg">
<g id="Icon">
<path id="Vector" d="M7 3H4C3.44772 3 3 3.44772 3 4V7C3 7.55228 3.44772 8 4 8H7C7.55228 8 8 7.55228 8 7V4C8 3.44772 7.55228 3 7 3Z" stroke="white" stroke-width="1.6"/>
<path id="Vector_2" d="M16 3H13C12.4477 3 12 3.44772 12 4V7C12 7.55228 12.4477 8 13 8H16C16.5523 8 17 7.55228 17 7V4C17 3.44772 16.5523 3 16 3Z" stroke="white" stroke-width="1.6"/>
<path id="Vector_3" d="M7 12H4C3.44772 12 3 12.4477 3 13V16C3 16.5523 3.44772 17 4 17H7C7.55228 17 8 16.5523 8 16V13C8 12.4477 7.55228 12 7 12Z" stroke="white" stroke-width="1.6"/>
<path id="Vector_4" d="M16 12H13C12.4477 12 12 12.4477 12 13V16C12 16.5523 12.4477 17 13 17H16C16.5523 17 17 16.5523 17 16V13C17 12.4477 16.5523 12 16 12Z" stroke="white" stroke-width="1.6"/>
</g>
</svg>
